<svg clip-rule="evenodd" fill-rule="evenodd" stroke-linejoin="round" stroke-miterlimit="2" viewBox="0 0 256 256" xmlns="http://www.w3.org/2000/svg"><path d="m237.931 22.058c0-7.234-5.648-13.108-12.605-13.108h-205.284c-6.957 0-12.605 5.874-12.605 13.108v26.217c0 7.235 5.648 13.108 12.605 13.108h205.284c6.957 0 12.605-5.873 12.605-13.108z" fill="#f9423a" transform="matrix(1.11066 0 0 1.06802 -8.25992 -5.55868)"/><g transform="matrix(.90241 0 0 1.06802 41.2888 58.4413)"><path d="m237.931 22.058c0-7.234-6.952-13.108-15.514-13.108h-199.466c-8.562 0-15.514 5.874-15.514 13.108v26.217c0 7.235 6.952 13.108 15.514 13.108h199.466c8.562 0 15.514-5.873 15.514-13.108z" fill="#fff"/><path d="m237.931 22.058c0-7.234-6.952-13.108-15.514-13.108h-199.466c-8.562 0-15.514 5.874-15.514 13.108v26.217c0 7.235 6.952 13.108 15.514 13.108h199.466c8.562 0 15.514-5.873 15.514-13.108zm-4.433 0v26.217c0 5.168-4.965 9.363-11.081 9.363h-199.466c-6.116 0-11.081-4.195-11.081-9.363v-26.217c0-5.167 4.965-9.363 11.081-9.363h199.466c6.116 0 11.081 4.196 11.081 9.363z" fill="#f9423a"/></g><path d="m237.931 22.058c0-7.234-6.952-13.108-15.514-13.108h-199.466c-8.562 0-15.514 5.874-15.514 13.108v26.217c0 7.235 6.952 13.108 15.514 13.108h199.466c8.562 0 15.514-5.873 15.514-13.108z" fill="#f9423a" transform="matrix(.90241 0 0 1.06802 41.2888 122.441)"/><path d="m237.931 22.058c0-7.234-5.648-13.108-12.605-13.108h-205.284c-6.957 0-12.605 5.874-12.605 13.108v26.217c0 7.235 5.648 13.108 12.605 13.108h205.284c6.957 0 12.605-5.873 12.605-13.108z" fill="#f9423a" transform="matrix(1.11066 0 0 1.06802 -8.25992 186.441)"/><g fill-rule="nonzero"><path d="m.455-.71v.295h-.25v-.295h-.155v.71h.155v-.275h.25v.275h.155v-.71z" fill="#fff" transform="matrix(40 0 0 40 22 46.20001)"/><path d="m50.4 17.80001h6.2v28.4h-6.2z" fill="#fff" stroke-width="40"/><path d="m.329-.71h-.279v.71h.28c.17 0 .278-.09.278-.227v-.256c0-.137-.108-.227-.279-.227zm.124.476c0 .057-.042.094-.114.094h-.134v-.43h.135c.071 0 .113.037.113.094z" fill="#fff" transform="matrix(40 0 0 40 58.6 46.20001)"/><path d="m.508-.57v-.14h-.458v.71h.458v-.14h-.303v-.135h.263v-.14h-.263v-.155z" fill="#fff" transform="matrix(40 0 0 40 84.56 46.20001)"/><path d="m.713-.71h-.194l-.137.419-.138-.419h-.194v.71h.14v-.464l.136.464h.111l.136-.466v.466h.14z" fill="#fff" transform="matrix(40 0 0 40 22 238.2003)"/><path d="m.508-.57v-.14h-.458v.71h.458v-.14h-.303v-.135h.263v-.14h-.263v-.155z" fill="#fff" transform="matrix(40 0 0 40 52.52 238.2003)"/><path d="m.438-.71v.428l-.244-.428h-.144v.71h.144v-.426l.244.426h.144v-.71z" fill="#fff" transform="matrix(40 0 0 40 73.92 238.2003)"/><path d="m.323.015c.174 0 .279-.09.279-.227v-.498h-.155v.491c0 .057-.043.094-.125.094s-.126-.037-.126-.094v-.491h-.155v.498c0 .137.107.227.282.227z" fill="#fff" transform="matrix(40 0 0 40 99.1598 238.2003)"/><path d="m.318.015c.177 0 .273-.098.273-.225 0-.257-.387-.201-.387-.306 0-.046.047-.069.105-.069.064 0 .115.029.115.072v.037h.155v-.033c0-.126-.087-.216-.268-.216-.185 0-.263.098-.263.213 0 .255.387.176.387.309 0 .057-.061.08-.113.08-.071 0-.134-.033-.134-.087v-.035h-.155v.025c0 .138.107.235.285.235z" fill="#fff" transform="matrix(40 0 0 40 124.9198 238.2003)"/><path d="m72 145.8003h6.2v28.4h-6.2z" fill="#fff" stroke-width="40"/><path d="m.438-.71v.428l-.244-.428h-.144v.71h.144v-.426l.244.426h.144v-.71z" fill="#fff" transform="matrix(40 0 0 40 80.2 174.2003)"/><path d="m.2.165.006-.076c-.092 0-.122-.039-.102-.14l.097-.495c.02-.101.074-.148.167-.148l.006-.076c-.135 0-.223.069-.25.211l-.099.505c-.028.143.04.219.175.219z" fill="#f9423a" transform="matrix(40 0 0 40 69.4866 108.1)"/><path d="m.405-.705h-.246l-.137.705h.254c.169 0 .268-.08.295-.217l.051-.26c.026-.137-.051-.228-.217-.228zm.133.233-.047.24c-.021.1-.092.153-.204.153h-.167l.107-.547h.17c.118 0 .161.051.141.154z" fill="#f9423a" transform="matrix(40 0 0 40 81.1666 108.1)"/><path d="m.418-.705h-.259l-.137.705h.083l.058-.296h.18c.009 0 .018 0 .026-.001l.071.297h.082l-.072-.307c.09-.021.14-.073.157-.16l.011-.059c.023-.115-.048-.179-.2-.179zm.116.183-.007.04c-.016.078-.067.107-.172.107h-.177l.049-.251h.18c.105 0 .143.028.127.104z" fill="#f9423a" transform="matrix(40 0 0 40 106.5266 108.1)"/><path d="m.445 0h.078l-.082-.705h-.116l-.354.705h.083l.099-.189h.268zm-.077-.632.044.364h-.22z" fill="#f9423a" transform="matrix(40 0 0 40 131.0066 108.1)"/><path d="m.573-.626.014-.079h-.428l-.137.705h.083l.056-.288h.31l.015-.078h-.31l.051-.26z" fill="#f9423a" transform="matrix(40 0 0 40 154.8064 108.1)"/><path d="m.63-.705h-.531l-.015.079h.224l-.122.626h.083l.122-.626h.224z" fill="#f9423a" transform="matrix(40 0 0 40 176.2864 108.1)"/><path d="m.274.013c.151 0 .263-.073.263-.217 0-.218-.336-.167-.336-.319 0-.079.078-.119.17-.119.121 0 .166.062.149.138l-.006.025h.082l.007-.027c.025-.104-.048-.211-.228-.211-.142 0-.256.065-.256.203 0 .212.336.155.336.318 0 .085-.075.133-.174.133-.123 0-.179-.062-.16-.143l.005-.022h-.083l-.005.023c-.026.116.052.218.236.218z" fill="#f9423a" transform="matrix(40 0 0 40 197.6864 108.1)"/><path d="m-.063.165c.137 0 .224-.069.252-.211l.099-.505c.027-.143-.04-.219-.176-.219l-.007.076c.093 0 .123.039.103.14l-.096.495c-.02.101-.075.148-.169.148z" fill="#f9423a" transform="matrix(40 0 0 40 222.0064 108.1)"/></g></svg>